# xmcd
#
# Track frame offsets: 
#        182
#        52015
#        101652
#        133720
#        196422
#        241095
#        272040
#
# Disc length: 4358 seconds
#
# Revision: 10
# Processed by: cddbd v1.5.2PL0 Copyright (c) Steve Scherf et al.
# Submitted via: ExactAudioCopyFreeDBPlugin 1.0
#
DISCID=61110407
DTITLE=Joshua Redman Quartet - Spirit Of The Moment - Live At The Vill
DTITLE=age Vanguard
DYEAR=1995
DGENRE=Jazz
TTITLE0=Jig-A-Jug
TTITLE1=My One And Only Love
TTITLE2=Count Me Out
TTITLE3=Second Snow
TTITLE4=Remember
TTITLE5=Dialogue
TTITLE6=St. Thomas
EXTD=YEAR: 1995
EXTT0=
EXTT1=
EXTT2=
EXTT3=
EXTT4=
EXTT5=
EXTT6=
PLAYORDER=
